<?xml version="1.0" encoding="UTF-8"?>
<svg width="200" height="200" viewBox="0 0 200 200" xmlns="http://www.w3.org/2000/svg">
  <style>
    .book {
      fill: #4183c4;
    }
    .pages {
      fill: #ffffff;
    }
    .text {
      fill: #343a40;
    }
  </style>
  
  <!-- Book background -->
  <rect class="book" x="30" y="40" width="140" height="120" rx="5" ry="5"/>
  
  <!-- Book pages -->
  <rect class="pages" x="40" y="50" width="120" height="100" rx="2" ry="2"/>
  
  <!-- Text lines -->
  <rect class="text" x="50" y="65" width="100" height="4" rx="2" ry="2"/>
  <rect class="text" x="50" y="75" width="80" height="4" rx="2" ry="2"/>
  <rect class="text" x="50" y="85" width="90" height="4" rx="2" ry="2"/>
  <rect class="text" x="50" y="95" width="70" height="4" rx="2" ry="2"/>
  <rect class="text" x="50" y="105" width="100" height="4" rx="2" ry="2"/>
  <rect class="text" x="50" y="115" width="85" height="4" rx="2" ry="2"/>
  <rect class="text" x="50" y="125" width="60" height="4" rx="2" ry="2"/>
  <rect class="text" x="50" y="135" width="90" height="4" rx="2" ry="2"/>
  
  <!-- Book binding -->
  <path class="book" d="M30,40 C25,60 25,140 30,160 L35,160 C35,140 35,60 35,40 Z" opacity="0.7"/>
  
  <!-- Bookmark -->
  <path fill="#e74c3c" d="M155,50 L170,50 L170,80 L162.5,70 L155,80 Z"/>
</svg>